/* XPM */
static char *_bf06e8bb3a140dd8e4f4c0c1be56f8d[] = {
/* columns rows colors chars-per-pixel */
"16 16 96 2 ",
"   c #5400FF",
".  c #5600FF",
"X  c #5A00FF",
"o  c #5D00FF",
"O  c #6200FF",
"+  c #6400FF",
"@  c #6500FF",
"#  c #6800FF",
"$  c #6E02FF",
"%  c #7305FF",
"&  c #7007FF",
"*  c #7407FF",
"=  c #7408FF",
"-  c #7509FF",
";  c #750AFF",
":  c #700CFF",
">  c #780EFF",
",  c #7B14FF",
"<  c #7C15FF",
"1  c #7D16FF",
"2  c #7E19FF",
"3  c #7F1BFF",
"4  c #7F1CFF",
"5  c #801CFF",
"6  c #8220FF",
"7  c #8320FF",
"8  c #8221FF",
"9  c #8321FF",
"0  c #8322FF",
"q  c #8425FF",
"w  c #8526FF",
"e  c #8627FF",
"r  c #8628FF",
"t  c #882BFF",
"y  c #892DFF",
"u  c #892EFF",
"i  c #8A2EFF",
"p  c #8A2FFF",
"a  c #8C33FF",
"s  c #8D33FF",
"d  c #8E33FF",
"f  c #8D34FF",
"g  c #8D35FF",
"h  c #8E34FF",
"j  c #8E35FF",
"k  c #8D36FF",
"l  c #8E36FF",
"z  c #8E37FF",
"x  c #9038FF",
"c  c #9039FF",
"v  c #903AFF",
"b  c #913AFF",
"n  c #913BFF",
"m  c #923CFF",
"M  c #933DFF",
"N  c #933EFF",
"B  c #9644FF",
"V  c #A159FF",
"C  c #A35BFF",
"Z  c #A15FFF",
"A  c #A45EFF",
"S  c #AD70FF",
"D  c #B072FF",
"F  c #B378FF",
"G  c #B782FF",
"H  c #B881FF",
"J  c #BA83FF",
"K  c #BA85FF",
"L  c #BB87FF",
"P  c #BF8DFF",
"I  c #C297FF",
"U  c #C497FF",
"Y  c #C59DFF",
"T  c #C79CFF",
"R  c #C79DFF",
"E  c #C9A0FF",
"W  c #CAA2FF",
"Q  c #CDA4FF",
"!  c #D1ACFF",
"~  c #D4B2FF",
"^  c #D9BAFF",
"/  c #DBBCFF",
"(  c #DBBFFF",
")  c #E2C9FF",
"_  c #E2CAFF",
"`  c #E3CDFF",
"'  c #E5D0FF",
"]  c #E7D4FF",
"[  c #E9D7FF",
"{  c #F0E3FF",
"}  c #F4EAFF",
"|  c #F7EFFF",
" . c #FCFAFF",
".. c #FEFDFF",
"X. c gray100",
"o. c None",
/* pixels */
"o.o.g g g g d d g d g g g g o.o.",
"o.d d g d g g a a a g g d a d o.",
"d g g d g g b 5 7 n g a g d g g ",
"a a d g n r @ R K O a z d g d g ",
"g g g b 4 7 I ....G 2 7 b g g g ",
"d g g w r { | F G  .} y q g d g ",
"a d g = ~ ..@ o X $ T A 7 g g g ",
"g g g ; _ T V [ ] _ P A 7 g d g ",
"g g g ; ` W B ( / T ..! % g g g ",
"d g z % Q ..= .   : ..K > z g g ",
"g d g i 4 ' ..U E ../ , i g g g ",
"d g g n 7 1 S ....Z > r b g g g ",
"a d a g z i @ L D # g z d a g g ",
"g g a d d g N 1 4 n d d g d d g ",
"o.d g g d g g g g g d g d g a o.",
"o.o.g g g g g d g g g g g g o.o."
};
