/* XPM */
static char *gleecbtc64[] = {
/* columns rows colors chars-per-pixel */
"64 64 253 2 ",
"   c #6500FF",
".  c #6700FF",
"X  c #6900FF",
"o  c #6A00FF",
"O  c #6B00FF",
"+  c #6C00FF",
"@  c #6E00FF",
"#  c #6F04FF",
"$  c #7001FF",
"%  c #7102FF",
"&  c #7103FF",
"*  c #7203FF",
"=  c #7204FF",
"-  c #7205FF",
";  c #7305FF",
":  c #7007FF",
">  c #7306FF",
",  c #7407FF",
"<  c #7507FF",
"1  c #7408FF",
"2  c #7508FF",
"3  c #7409FF",
"4  c #7509FF",
"5  c #750AFF",
"6  c #750BFF",
"7  c #760AFF",
"8  c #760BFF",
"9  c #770BFF",
"0  c #760CFF",
"q  c #770CFF",
"w  c #770DFF",
"e  c #750EFF",
"r  c #770EFF",
"t  c #770FFF",
"y  c #780DFF",
"u  c #790EFF",
"i  c #780FFF",
"p  c #790FFF",
"a  c #7810FF",
"s  c #7910FF",
"d  c #7911FF",
"f  c #7B10FF",
"g  c #7A11FF",
"h  c #7913FF",
"j  c #7A12FF",
"k  c #7A13FF",
"l  c #7B13FF",
"z  c #7B14FF",
"x  c #7B15FF",
"c  c #7C14FF",
"v  c #7C15FF",
"b  c #7C16FF",
"n  c #7D16FF",
"m  c #7C17FF",
"M  c #7D17FF",
"N  c #7E17FF",
"B  c #7D18FF",
"V  c #7D19FF",
"C  c #7E18FF",
"Z  c #7E19FF",
"A  c #7E1AFF",
"S  c #7F1AFF",
"D  c #7F1BFF",
"F  c #7F1CFF",
"G  c #811EFF",
"H  c #811FFF",
"J  c #821FFF",
"K  c #8120FF",
"L  c #8220FF",
"P  c #8221FF",
"I  c #8321FF",
"U  c #8322FF",
"Y  c #8323FF",
"T  c #8423FF",
"R  c #8424FF",
"E  c #8425FF",
"W  c #8525FF",
"Q  c #8526FF",
"!  c #8527FF",
"~  c #8628FF",
"^  c #8629FF",
"/  c #8729FF",
"(  c #872AFF",
")  c #892BFF",
"_  c #892CFF",
"`  c #892DFF",
"'  c #8A2DFF",
"]  c #892EFF",
"[  c #8A2EFF",
"{  c #8A2FFF",
"}  c #8A30FF",
"|  c #8B30FF",
" . c #8C31FF",
".. c #8C32FF",
"X. c #8D32FF",
"o. c #8C33FF",
"O. c #8D33FF",
"+. c #8E33FF",
"@. c #8C34FF",
"#. c #8D34FF",
"$. c #8C35FF",
"%. c #8D35FF",
"&. c #8E34FF",
"*. c #8E35FF",
"=. c #8F35FF",
"-. c #8C36FF",
";. c #8D36FF",
":. c #8E36FF",
">. c #8F36FF",
",. c #8E37FF",
"<. c #8F37FF",
"1. c #8F38FF",
"2. c #8F39FF",
"3. c #9038FF",
"4. c #9039FF",
"5. c #903AFF",
"6. c #913AFF",
"7. c #903BFF",
"8. c #913BFF",
"9. c #923BFF",
"0. c #913CFF",
"q. c #923CFF",
"w. c #923DFF",
"e. c #9140FF",
"r. c #9340FF",
"t. c #9644FF",
"y. c #9745FF",
"u. c #9446FF",
"i. c #9846FF",
"p. c #9847FF",
"a. c #934AFF",
"s. c #994AFF",
"d. c #994BFF",
"f. c #9A4BFF",
"g. c #9A4CFF",
"h. c #9B4CFF",
"j. c #984EFF",
"k. c #9C4EFF",
"l. c #9C4FFF",
"z. c #9D4FFF",
"x. c #9E4FFF",
"c. c #9D51FF",
"v. c #9D53FF",
"b. c #9E53FF",
"n. c #9F54FF",
"m. c #A055FF",
"M. c #A158FF",
"N. c #A359FF",
"B. c #A35AFF",
"V. c #A45CFF",
"C. c #A45EFF",
"Z. c #A55FFF",
"A. c #A260FF",
"S. c #A560FF",
"D. c #A660FF",
"F. c #A462FF",
"G. c #A763FF",
"H. c #A863FF",
"J. c #A865FF",
"K. c #AA67FF",
"L. c #AA68FF",
"P. c #AA69FF",
"I. c #AB6AFF",
"U. c #AD6EFF",
"Y. c #AE6FFF",
"T. c #AF70FF",
"R. c #AF71FF",
"E. c #B175FF",
"W. c #B276FF",
"Q. c #B378FF",
"!. c #B479FF",
"~. c #B47AFF",
"^. c #B77FFF",
"/. c #B981FF",
"(. c #BC88FF",
"). c #BE8BFF",
"_. c #BE8CFF",
"`. c #BF8EFF",
"'. c #C399FF",
"]. c #C598FF",
"[. c #C79BFF",
"{. c #C79CFF",
"}. c #C89DFF",
"|. c #C89EFF",
" X c #C89FFF",
".X c #C99FFF",
"XX c #CAA0FF",
"oX c #CAA1FF",
"OX c #CBA2FF",
"+X c #CBA3FF",
"@X c #CBA4FF",
"#X c #CCA4FF",
"$X c #CDA6FF",
"%X c #CDA7FF",
"&X c #CFA8FF",
"*X c #CFACFF",
"=X c #D1AEFF",
"-X c #D2AFFF",
";X c #D3AFFF",
":X c #D3B1FF",
">X c #D4B2FF",
",X c #D4B3FF",
"<X c #D5B3FF",
"1X c #D4B5FF",
"2X c #D7B7FF",
"3X c #D4B9FF",
"4X c #D7B9FF",
"5X c #D8B9FF",
"6X c #D8BBFF",
"7X c #D9BBFF",
"8X c #DABCFF",
"9X c #DABDFF",
"0X c #DABEFF",
"qX c #DBBFFF",
"wX c #DDC1FF",
"eX c #DDC2FF",
"rX c #DEC4FF",
"tX c #DFC6FF",
"yX c #DFC7FF",
"uX c #E0C8FF",
"iX c #E0C9FF",
"pX c #E2CBFF",
"aX c #E2CCFF",
"sX c #E3CDFF",
"dX c #E5CFFF",
"fX c #E2D0FF",
"gX c #E5D1FF",
"hX c #E6D1FF",
"jX c #E6D2FF",
"kX c #E6D3FF",
"lX c #E7D4FF",
"zX c #EADBFF",
"xX c #EBDCFF",
"cX c #EBDDFF",
"vX c #EFE3FF",
"bX c #F0E4FF",
"nX c #F1E5FF",
"mX c #F2E7FF",
"MX c #F1E9FF",
"NX c #F3E9FF",
"BX c #F4ECFF",
"VX c #F6EFFF",
"CX c #F7F1FF",
"ZX c #F8F2FF",
"AX c #F8F3FF",
"SX c #F9F5FF",
"DX c #FAF6FF",
"FX c #FBF8FF",
"GX c #FDFCFF",
"HX c #FEFDFF",
"JX c #FFFEFF",
"KX c gray100",
"LX c None",
/* pixels */
"LXLXLXLXLXLXLXLXLXLXLX%.%.%.%.%.%.%.%.O.%.O.%.O.%.O.%.O.%.O.%.O.%.O.%.O.%.O.%.O.O.%.O.%.O.%.%.%.%.%.O.%.LXLXLXLXLXLXLXLXLXLXLXLX",
"LXLXLXLXLXLXLXLX%.%.%.O.%.O.%.O.O.%.O.%.O.%.O.%.O.%.O.%.O.%.O.%.O.%.O.%.O.%.O.%.%.O.%.O.O.%.O.%.%.O.O.%.O.O.%.%.LXLXLXLXLXLXLXLX",
"LXLXLXLXLXLXO.%.O.%.O.%.O.%.O.%.%.O.%.O.%.O.%.O.%.O.%.O.%.O.%.O.%.O.%.O.%.O.%.O.O.%.O.%.%.O.%.O.%.O.%.O.O.%.O.O.O.LXLXLXLXLXLXLX",
"LXLXLXLXLX%.O.O.%.O.%.O.%.O.%.O.O.%.O.%.O.%.O.%.O.%.O.%.O.%.O.%.O.%.O.%.O.%.O.%.%.O.%.O.O.%.O.%.O.%.O.%.%.O.%.%.%.O.%.LXLXLXLXLX",
"LXLXLXLXO.O.O.%.O.%.O.%.O.%.O.%.%.O.%.O.%.O.%.O.%.O.%.O.%.O.%.O.%.O.%.O.%.O.%.O.O.%.O.%.O.%.O.%.%.O.%.O.%.O.%.O.%.O.O.O.LXLXLXLX",
"LXLXLX%.O.%.%.O.%.O.%.O.%.O.%.O.O.%.O.%.O.%.O.%.O.%.O.%.O.%.O.%.O.%.O.%.O.%.O.%.%.O.%.O.%.O.%.O.O.%.O.%.O.%.O.%.O.%.O.O.%.LXLXLX",
"LXLX%.O.O.%.O.%.O.%.O.%.O.%.O.%.%.O.%.O.%.O.%.O.%.O.%.O.%.O.%.O.%.O.%.O.%.O.%.O.O.%.O.%.O.%.O.%.%.O.%.O.%.O.%.O.%.O.%.O.O.LXLXLX",
"LXLXO.%.%.O.%.O.%.O.%.O.%.O.%.O.O.%.O.%.O.%.O.%.O.%.O.%.O.%.O.%.O.%.O.%.O.%.O.%.%.O.%.O.%.O.%.O.O.%.O.%.O.%.O.%.O.%.O.%.O.%.LXLX",
"LX%.O.%.O.%.O.%.O.%.O.%.O.%.O.%.%.O.%.O.%.O.%.O.O.%.O.%.O.%.O.%.%.O.%.O.O.%.O.%.O.%.O.%.O.%.O.%.O.%.O.%.O.%.O.%.%.O.%.O.%.O.LXLX",
"LX%.O.O.%.O.%.O.%.O.%.O.%.O.%.O.O.%.O.%.O.%.O.%.%.O.%.O.%.O.%.O.O.%.O.%.%.O.%.O.%.O.%.O.%.O.%.O.%.O.%.O.%.O.%.O.O.%.O.%.O.<.%.LX",
"LX%.O.%.O.%.O.%.O.%.O.%.O.%.O.%.%.O.%.O.%.O.%.O.O.%.O.%.O.%.%.%.%.%.%.O.O.%.O.%.O.%.O.%.O.%.O.%.O.%.O.%.O.%.O.%.%.O.%.O.O.%.O.LX",
"%.O.%.O.%.O.%.O.%.O.%.O.%.O.%.O.O.%.O.%.O.%.O.%.%.O.%.O.2.I N D D N [ 9.%.O.%.O.%.O.%.O.%.O.%.O.%.O.%.O.%.O.%.O.O.%.O.%.%.O.%.LX",
"%.%.O.%.O.%.O.%.O.%.O.%.O.%.O.%.%.O.%.O.%.O.%.O.O.%.O.%.o.y.k.f.f.g.9.[ %.O.O.%.O.%.O.%.O.%.O.%.O.%.O.%.O.%.O.%.O.%.O.%.O.%.O.LX",
"%.O.%.O.%.O.%.O.%.O.%.O.%.O.%.O.O.%.O.%.O.%.O.%.%.O.O.O.z tXKXKXKXKXB.l %.O.%.O.%.O.%.O.%.O.%.O.%.O.%.O.%.O.%.O.%.O.%.O.%.O.O.%.",
"%.%.O.%.O.%.O.%.O.%.O.%.O.%.O.%.%.O.%.O.%.O.%.O.%.%.O.o.z eXKXKXKXKXM.N %.%.%.%.O.%.O.%.O.%.O.%.O.%.O.%.O.%.O.%.O.%.O.%.O.%.%.%.",
"O.O.%.O.%.O.%.O.%.O.%.O.%.O.%.O.O.%.O.%.O.%.O.%.O.%.%.O.w 2XKXKXKXKXc.f 9.%.%.O.%.O.%.O.%.O.%.O.%.O.%.O.%.O.%.O.%.O.%.O.%.O.%.%.",
"%.O.%.O.%.O.%.O.O.%.O.%.O.%.O.%.O.%.%.O.%.%.O.%.2.^ i ; : qXKXKXKXKXc.  7 F %.2.O.O.%.%.O.%.O.%.O.%.O.%.O.%.O.%.O.%.O.%.O.%.O.%.",
"%.%.O.%.O.%.O.%.%.O.%.O.%.O.%.O.%.O.O.%.O.%.9.I - E G..XsXKXKXKXKXKXNX4X(.r.w w O.9.%.%.%.O.%.O.%.O.%.O.%.O.%.O.%.O.%.O.%.O.%.%.",
"%.O.%.O.%.O.%.O.O.%.O.%.O.%.O.%.O.%.O.O.9.[ ; [ _.NXKXKXKXKXKXKXKXKXKXKXKXKX4XM.7 N q.%.O.%.O.%.O.%.O.%.O.%.O.%.O.%.O.%.O.%.O.%.",
"O.%.O.%.O.%.O.%.%.O.%.O.%.O.%.O.%.O.O.q.G 7 !.DXKXKXKXKXKXKXKXKXKXKXKXKXKXKXKXKX4X9.; %.%.O.%.O.%.O.%.O.%.O.%.O.%.O.%.O.%.O.%.%.",
"%.O.%.O.%.O.%.O.O.%.O.%.O.%.O.%.%.%.9.D l qXKXKXKXKXKXKXKXKXKXKXKXKXKXKXKXKXKXKXKXKXG.$ %.%.O.%.O.%.O.%.O.%.O.%.O.%.O.%.O.%.O.%.",
"O.%.O.%.O.%.O.%.%.O.%.O.%.O.%.O.%.%.! w gXKXKXKXKXKXKXKXKXVXsXeXtXzXKXKXKXKXKXKXKXKXKXG.- 9.%.O.%.O.%.O.%.O.%.O.%.O.%.O.%.O.%.%.",
"%.O.%.O.%.O.%.O.O.%.O.%.O.%.O.%.O.9.$ $XKXKXKXKXKXKXvX_.g.[ G N D ^ %.L.1XKXKXKXKXKXKXKXO.D 9.O.O.%.O.%.O.%.O.%.O.%.O.%.O.%.O.%.",
"O.%.O.%.O.%.O.%.%.O.%.O.%.O.%.O.%.l f.KXKXKXKXKXKXW.F $ N ! | O.o./ G 7 e 0.qXKXKXKXKXKXqX- %.O.%.O.%.O.%.O.%.O.%.O.%.O.%.O.%.%.",
"%.O.%.O.%.O.%.O.%.O.%.O.%.O.%.O.%.; <XKXKXKXKXAX9.X ^ 9.%.%.%.%.O.O.%.2.%.l X +XKXKXKXKXKXi.D %.O.%.O.%.O.%.O.%.O.%.O.%.O.%.O.%.",
"O.%.O.%.O.%.O.%.O.%.O.%.O.%.O.<.! O.FXKXKXKXKXL.X q.%.%.O.%.%.O.O.O.O.%.%.9.! $ zXKXKXKXKX$X- %.%.O.%.O.%.O.%.O.%.O.%.O.%.O.%.%.",
"%.O.%.O.%.O.%.O.%.O.%.O.%.O.%.%.z M.KXKXKXKXzXz [ %.%.O.%.O.O.%.%.O.%.O.O.O.9.w C.sXtXtXpX[.D O.O.%.O.%.O.%.O.%.O.%.O.%.O.%.O.%.",
"O.%.O.%.O.%.O.%.O.%.O.%.O.%.%.<.i U.KXKXKXKXOX7 %.O.o.O.o.o.o.o.o.o.o.o.o.o.o.9.I D D D D ! 2.O.%.O.%.O.%.O.%.O.%.O.%.O.%.O.%.%.",
"%.O.%.O.%.O.%.O.%.O.%.O.%.O.%.%.l U.KXKXKXKX|.7 q.! l l l z z z z z z z l l z z l i l i i N <.%.O.%.O.%.O.%.O.%.O.%.O.%.O.%.O.%.",
"O.%.O.%.O.%.O.%.O.%.O.%.O.%.%.%.l U.KXKXKXKXOXw D W.qX2X2X2X2X2X2X2X2X2X2X2X2X2X2X2X2X2X7XOX/ [ %.O.%.O.%.O.%.O.%.O.%.O.%.O.%.%.",
"%.O.%.O.%.O.%.O.%.O.%.O.%.O.%.%.l U.KXKXKXKXOXw ; $XKXKXKXKXKXKXKXKXKXKXKXKXKXKXKXKXKXKXKXNXI [ O.%.O.%.O.%.O.%.O.%.O.%.O.%.O.%.",
"O.%.O.%.O.%.O.%.O.%.O.%.O.%.O.%.w T.KXKXKXKXOXw i ].KXKXKXKXKXKXKXKXKXKXKXKXKXKXKXKXKXKXKXgXI [ %.O.%.O.%.O.%.O.%.O.%.O.%.O.%.%.",
"O.%.O.%.O.%.O.%.O.%.O.%.O.%.O.<.l U.KXKXKXKXOXw w [.KXKXKXKXKXKXKXKXKXKXKXKXKXKXKXKXKXKXKXgXI [ %.O.%.O.%.O.%.O.%.O.%.O.%.O.%.%.",
"%.O.%.O.%.O.%.O.%.O.%.O.%.O.%.%.l U.KXKXKXKXOXi 7 OXKXKXKXKXKXKXKXKXKXKXKXKXKXKXKXKXKXKXKXgXI [ %.%.O.%.O.%.O.%.O.%.O.%.O.%.O.%.",
"O.%.O.%.O.%.O.%.O.%.O.%.O.%.%.<.i U.KXKXKXKXOX7 [ y.M.b.b.m.c.c.b.b.b.b.b.b.b.y.F.KXKXKXKXgXI [ %.O.%.O.%.O.%.O.%.O.%.O.%.O.%.%.",
"%.O.%.O.%.O.%.O.%.O.%.O.%.O.%.%.l R.KXKXKXKX.X: q.E z z z N N N z N D z D z D + I KXKXKXKXlX! [ O.%.O.%.O.%.O.%.O.%.O.%.O.%.O.%.",
"O.%.O.%.O.%.O.%.O.%.O.%.O.%.O.%.i J.KXKXKXKX4Xw %.%.2.%.%.<.%.<.<.%.%.%.%.%.9.l g.KXKXKXKXpXG [ %.O.%.O.%.O.%.O.%.O.%.O.%.O.%.%.",
"%.O.%.O.%.O.%.O.%.O.%.O.%.O.%.%.D y.KXKXKXKXFX[ z 0.O.%.O.%.%.%.O.%.%.%.%.O.9.X |.KXKXKXKX=X7 %.O.%.O.%.O.%.O.%.O.%.O.%.O.%.O.%.",
"O.%.O.%.O.%.O.%.O.%.O.%.O.%.O.%.[ D zXKXKXKXKX:XX I q.%.%.%.%.%.%.O.%.O.%.9.+ y.KXKXKXKXKXU.7 2.%.O.%.O.%.O.%.O.%.O.%.O.%.O.%.%.",
"%.O.%.O.%.O.%.O.%.O.%.O.%.O.%.%.9.- /.KXKXKXKXKX&Xz $ I %.%.%.%.<.%.%.o.l + f.AXKXKXKXKXAXI ^ %.O.%.O.%.O.%.O.%.O.%.O.%.O.%.O.%.",
"O.%.O.%.O.%.O.%.%.O.%.O.%.O.%.O.%.^ D NXKXKXKXKXKXbXW.^ t 7 l l l i ; G g.*XKXKXKXKXKXKXW.- 9.%.%.O.%.O.%.O.%.O.%.O.%.O.%.O.%.%.",
"%.O.%.O.%.O.%.O.O.%.O.%.O.%.O.%.O.9.w g.KXKXKXKXKXKXKXDX:X_.L.C.C.!.[.dXKXKXKXKXKXKXKXeX- o.%.O.O.%.O.%.O.%.O.%.O.%.O.%.O.%.O.%.",
"O.%.O.%.O.%.O.%.%.O.%.O.%.O.%.O.O.%.9.$ L.KXKXKXKXKXKXKXKXKXKXKXKXKXKXKXKXKXKXKXKXKXdXl G 9.O.%.%.O.%.O.%.O.%.O.%.O.%.O.%.O.%.%.",
"%.O.%.O.%.O.%.O.O.%.O.%.O.%.O.%.%.O.%.%.- c.vXKXKXKXKXKXKXKXKXKXKXKXKXKXKXKXKXKXKXOXl F 9.O.%.O.O.%.O.%.O.%.O.%.O.%.O.%.O.%.O.%.",
"O.%.O.%.O.%.O.%.%.O.%.O.%.O.%.O.%.O.%.%.9.7 I _.DXKXKXKXKXKXKXKXKXKXKXKXKXKXKXeXg.- ! 9.O.%.O.%.%.O.%.O.%.O.%.O.%.O.%.O.%.O.%.%.",
"%.O.%.O.%.O.%.O.O.%.O.%.O.%.O.%.O.%.O.%.O.9.E - [ /.iXKXKXKXKXKXKXKXKXKXVXOXc.i i %.%.O.%.O.%.O.O.%.O.%.O.%.O.%.O.%.O.%.O.%.O.%.",
"%.O.O.%.O.%.O.%.%.O.%.O.%.O.%.O.%.O.%.O.%.O.%.2.I - D 9.C.zXKXKXKXKX'.a./ 7 l o.9.%.O.%.O.%.O.%.%.O.%.O.%.O.%.O.%.O.%.O.%.O.%.%.",
"O.%.%.O.%.O.%.O.O.%.O.%.O.%.O.%.O.%.O.%.O.O.%.%.%.%.o.D   :XKXKXKXKX9.  ^ 9.%.%.%.O.%.O.%.O.%.O.O.%.O.%.O.%.O.%.O.%.O.%.O.%.O.%.",
"%.%.O.%.O.%.O.%.O.%.O.%.O.%.O.%.O.%.O.%.O.%.O.%.O.%.O.%.D 7XKXKXKXKXB.N %.O.%.O.%.O.%.O.%.O.%.O.%.O.%.O.%.O.%.O.%.O.%.O.%.O.O.%.",
"%.O.%.O.%.O.%.O.%.O.%.O.%.O.%.O.%.O.%.O.%.O.%.O.%.O.O.O.l lXKXKXKXKXC.i <.%.O.%.O.%.O.%.O.%.O.%.O.%.O.%.O.%.O.%.O.%.O.%.O.%.O.%.",
"%.O.O.%.O.%.O.%.O.%.O.%.O.%.O.%.O.%.O.%.O.%.O.%.%.O.O.O.G (.<X=X=X<Xf.G %.%.%.O.%.O.%.O.%.O.%.O.%.O.%.O.%.O.%.O.%.O.%.O.%.O.O.%.",
"%.O.%.O.%.O.%.O.%.O.%.O.%.O.%.O.%.O.%.O.%.O.%.O.O.%.O.%.9.D i l l i [ 9.%.%.O.%.O.%.O.%.O.%.O.%.O.%.O.%.O.%.O.%.O.%.O.%.O.%.%.LX",
"LXO.O.%.O.%.O.%.O.%.O.%.O.%.O.%.O.%.O.%.O.%.O.%.%.O.%.O.%.O.%.O.O.%.O.%.%.O.%.O.%.O.%.O.%.O.%.O.%.O.%.O.%.O.%.O.%.O.%.O.%.%.O.LX",
"LX%.%.O.%.O.%.O.%.O.%.O.%.O.%.O.%.O.%.O.%.O.%.O.O.%.O.%.O.%.O.%.O.O.%.O.O.%.O.%.O.%.O.%.O.%.O.%.O.%.O.%.O.%.O.%.O.%.O.%.O.O.%.LX",
"LX%.O.%.O.%.O.%.O.%.O.%.O.%.O.%.O.%.O.%.O.%.O.%.%.O.%.O.%.O.%.O.O.%.O.%.%.O.%.O.%.O.%.O.%.O.%.O.%.O.%.O.%.O.%.O.%.O.%.O.%.O.%.LX",
"LX%.O.O.%.O.%.O.%.O.%.O.%.O.%.O.%.O.%.O.%.O.%.O.O.%.O.%.O.%.O.%.%.O.%.O.O.%.O.%.O.%.O.%.O.%.O.%.O.%.O.%.O.%.O.%.O.%.O.%.O.O.LXLX",
"LXLXO.%.%.O.%.O.O.%.O.%.O.%.O.%.O.%.O.%.O.%.O.%.O.%.O.%.O.%.O.%.O.%.O.%.O.%.O.%.%.O.%.O.%.O.%.O.%.O.%.O.%.O.%.O.%.O.%.O.O.<.LXLX",
"LXLXLXO.O.%.O.%.%.O.%.O.%.O.%.O.%.O.%.O.%.O.%.O.%.O.%.O.%.O.%.O.%.O.%.O.%.O.%.O.O.%.O.%.O.%.O.%.O.%.O.%.O.%.O.%.O.%.O.%.+.LXLXLX",
"LXLXLX%.O.%.%.O.O.%.O.%.O.%.O.%.O.%.O.%.O.%.O.%.O.%.O.%.O.%.O.%.O.%.O.%.O.%.O.%.%.O.%.O.%.O.%.O.%.O.%.O.%.O.%.O.%.O.%.O.LXLXLXLX",
"LXLXLXLXO.O.O.%.%.O.%.O.%.O.%.O.%.O.%.O.%.O.%.O.%.O.%.O.%.O.%.O.%.O.%.O.%.O.%.O.O.%.O.%.O.%.O.%.O.%.O.%.O.%.O.%.O.%.O.O.LXLXLXLX",
"LXLXLXLXLX%.O.O.%.O.%.O.O.%.O.%.O.%.O.%.O.%.O.%.O.%.O.%.O.%.O.%.O.%.O.%.O.%.O.%.%.O.%.O.%.O.%.O.%.O.%.O.%.O.%.O.O.%.%.LXLXLXLXLX",
"LXLXLXLXLXLXLX%.O.%.O.%.%.O.%.O.%.O.%.O.%.O.%.O.%.O.%.O.%.O.%.O.%.O.%.O.%.O.%.O.O.%.O.%.O.%.O.%.O.%.O.%.O.%.O.O.O.LXLXLXLXLXLXLX",
"LXLXLXLXLXLXLXLXLX%.%.O.%.O.O.%.O.%.%.O.O.%.O.%.%.O.O.%.O.%.%.O.O.%.O.%.%.O.O.%.%.O.O.%.%.O.%.O.O.%.O.O.%.O.%.LXLXLXLXLXLXLXLXLX",
"LXLXLXLXLXLXLXLXLXLXLXLXLX%.%.%.%.%.%.%.%.%.%.%.%.%.%.%.%.%.%.%.%.%.%.%.%.%.%.%.%.%.%.%.%.%.%.%.%.%.%.LXLXLXLXLXLXLXLXLXLXLXLXLX"
};
