/* XPM */
static char *gleecbtc32[] = {
/* columns rows colors chars-per-pixel */
"32 32 162 2 ",
"   c #5A00FF",
".  c #6200FF",
"X  c #6600FF",
"o  c #6700FF",
"O  c #6B00FF",
"+  c #6C00FF",
"@  c #6D00FF",
"#  c #6E00FF",
"$  c #6E01FF",
"%  c #6C02FF",
"&  c #7206FF",
"*  c #7306FF",
"=  c #7406FF",
"-  c #7407FF",
";  c #7408FF",
":  c #7409FF",
">  c #7509FF",
",  c #750AFF",
"<  c #770CFF",
"1  c #780EFF",
"2  c #780FFF",
"3  c #7710FF",
"4  c #7712FF",
"5  c #7910FF",
"6  c #7811FF",
"7  c #7911FF",
"8  c #7A11FF",
"9  c #7912FF",
"0  c #7A13FF",
"q  c #7B13FF",
"w  c #7B14FF",
"e  c #7C15FF",
"r  c #7C17FF",
"t  c #7D17FF",
"y  c #7E17FF",
"u  c #7D18FF",
"i  c #7E19FF",
"p  c #7E1AFF",
"a  c #7B21FF",
"s  c #811BFF",
"d  c #801CFF",
"f  c #801DFF",
"g  c #811FFF",
"h  c #821FFF",
"j  c #8120FF",
"k  c #8220FF",
"l  c #8221FF",
"z  c #8322FF",
"x  c #8323FF",
"c  c #8421FF",
"v  c #8423FF",
"b  c #8425FF",
"n  c #8626FF",
"m  c #8628FF",
"M  c #8728FF",
"N  c #8729FF",
"B  c #872AFF",
"V  c #882AFF",
"C  c #882BFF",
"Z  c #882CFF",
"A  c #892CFF",
"S  c #892DFF",
"D  c #8A2EFF",
"F  c #8B30FF",
"G  c #8B31FF",
"H  c #8C31FF",
"J  c #8C32FF",
"K  c #8C33FF",
"L  c #8D33FF",
"P  c #8E33FF",
"I  c #8C34FF",
"U  c #8D34FF",
"Y  c #8D35FF",
"T  c #8E34FF",
"R  c #8E35FF",
"E  c #8C36FF",
"W  c #8D36FF",
"Q  c #8E36FF",
"!  c #8E37FF",
"~  c #8F37FF",
"^  c #8F38FF",
"/  c #8F3AFF",
"(  c #9038FF",
")  c #9039FF",
"_  c #903AFF",
"`  c #913AFF",
"'  c #913BFF",
"]  c #923BFF",
"[  c #913CFF",
"{  c #923DFF",
"}  c #933FFF",
"|  c #9340FF",
" . c #9542FF",
".. c #9543FF",
"X. c #9046FF",
"o. c #9644FF",
"O. c #9745FF",
"+. c #9949FF",
"@. c #994AFF",
"#. c #9A4BFF",
"$. c #9A4CFF",
"%. c #9B4CFF",
"&. c #9B4EFF",
"*. c #9D50FF",
"=. c #9E51FF",
"-. c #9E53FF",
";. c #9E59FF",
":. c #A056FF",
">. c #A059FF",
",. c #A35CFF",
"<. c #A25DFF",
"1. c #A55FFF",
"2. c #A662FF",
"3. c #A764FF",
"4. c #A865FF",
"5. c #AA67FF",
"6. c #AA68FF",
"7. c #AB68FF",
"8. c #AC6AFF",
"9. c #AC6BFF",
"0. c #AC6CFF",
"q. c #AE6DFF",
"w. c #AF70FF",
"e. c #B071FF",
"r. c #B073FF",
"t. c #B176FF",
"y. c #B277FF",
"u. c #B77FFF",
"i. c #B885FF",
"p. c #B988FF",
"a. c #C497FF",
"s. c #C699FF",
"d. c #C59BFF",
"f. c #C89EFF",
"g. c #C99EFF",
"h. c #C99FFF",
"j. c #CCA4FF",
"k. c #CEAAFF",
"l. c #D1B3FF",
"z. c #D4B2FF",
"x. c #E3CDFF",
"c. c #E4CFFF",
"v. c #E5D0FF",
"b. c #E5D1FF",
"n. c #E8D7FF",
"m. c #E9D7FF",
"M. c #E9D8FF",
"N. c #E9D9FF",
"B. c #E9DAFF",
"V. c #EBDAFF",
"C. c #EDE0FF",
"Z. c #EFE2FF",
"A. c #F1E8FF",
"S. c #F4ECFF",
"D. c #F5EDFF",
"F. c #F8F3FF",
"G. c #F9F4FF",
"H. c #FBF7FF",
"J. c #FDFBFF",
"K. c #FDFDFF",
"L. c gray100",
"P. c None",
/* pixels */
"P.P.P.P.P.U U U U U U U U U U U U U U U U U U U U U U P.P.P.P.P.",
"P.P.P.U U U U U U U U U U U U U U U U U U U U U U U U U U P.P.P.",
"P.P.L U U U U U U U U U U U U U U U U U U U U U U U U U U L P.P.",
"P.U L U U U U U U U U U U U U U U U U U U U U U U U U U U U U P.",
"P.U U U U U U U U U U U U U U U U U U U U U U U U U U U U U U P.",
"U U U U U U U U U U U U U [ N > > L _ U U U U U U U U U U U U U ",
"U U U U U U U U U U U U U c :.g.g.[ N U U L U U U U U U U U U U ",
"U U U U U U U U U U U _ L . <.L.L.k + _ _ L U U U U U U U U U U ",
"U U U U U U U U U ^ U 1 p X.k.L.L.p.U 1 r / U U U U U U U U U U ",
"U U U U U U U U _ S * 2.x.L.L.L.L.L.L.z.o.> ^ U U U U U U U U U ",
"U U U U U U U U L > a.L.L.L.F.b.n.L.L.L.L.6.; ^ U U U U U U U U ",
"U U U U U U U ^ * e.L.L.N.<.S k k K t.F.L.L.o.r ^ U U U U U U U ",
"U U U U U U U S x S.L.b.4 * n L K k % I L.L.x.; U U U U U U U ^ ",
"U U U U U U U p +.L.L.4.+ p 7 7 7 7 p X K 1.=.K U U U U U U U U ",
"U U U U U U ^ p +.L.L.&.k e.0.8.8.8.8.w.=.o.$.^ K U U U U U U U ",
"U U U U U U U p +.L.L.U | L.L.L.L.L.L.L.L.L.H.N N U U U U U U U ",
"U U U U U U U p +.L.L.[ _ L.L.L.L.L.L.L.L.L.C.N V U U U U U U U ",
"U U U U U U U p $.L.L.=.r o.[ | [ | | a a.L.C.S N U U U U U U U ",
"U U U U U U U s o.L.L.t.X c s k k c s   j.L.N.k S L U U U U U U ",
"U U U U U U U L r m.L.A.[ + r k s 7 % 6.L.L.g.* _ L U U U U U U ",
"U U U U U U U _ 1 $.L.L.L.s.;.[ | 3.l.L.L.F.n c ^ U U U U U U U ",
"U U U U U U U U _ > 4.J.L.L.L.L.L.L.L.L.N.^ 7 _ U U U U U U U ^ ",
"U U U U U U U U U ^ > U s.S.L.L.L.L.N.u.s r _ U U U U U U U U U ",
"U U U U U U U U U U [ s > 7 i.L.L.;.4 * N [ L L U U U U U U U U ",
"U U U U U U U U U U U ^ / + 4.L.L.S 7 [ U U U U U U U U U U U U ",
"U U U U U U U U U U U U U S o.0.4._ S U U U U U U U U U U U U U ",
"^ L U U U U U U U U U U U ^ N 2 7 L ^ U U U U U U U U U U U U U ",
"P.U U U U U U U U U U U U U U ^ U U U U U U U U U U U U U U U P.",
"P.U U U U U U U U U U U U U U U U U U U U U U U U U U U U U U P.",
"P.P.U U U U U U U U U U U U U U U U U U U U U U U U U U U U P.P.",
"P.P.P.U U U U U I U U U U U U U U U U U U U U U U U U U U P.P.P.",
"P.P.P.P.P.U U U I ^ U U U ^ U U U ^ U U U ^ U U U U U P.P.P.P.P."
};
