/* XPM */
static char *gleecbtc16[] = {
/* columns rows colors chars-per-pixel */
"16 16 165 2 ",
"   c None",
".  c #CD7E1E",
"X  c #CE7F1E",
"o  c #D1811E",
"O  c #D0801F",
"+  c #D5831F",
"@  c #D9841F",
"#  c #ED8F1D",
"$  c #D48220",
"%  c #D68420",
"&  c #D88520",
"*  c #D98620",
"=  c #DA8621",
"-  c #DA8825",
";  c #DF8D2A",
":  c #DA8D2E",
">  c #DF8F2F",
",  c #DF943B",
"<  c #DB933C",
"1  c #DB943F",
"2  c #DF953E",
"3  c #E38C23",
"4  c #E48C23",
"5  c #E98F22",
"6  c #EA8F23",
"7  c #EA9023",
"8  c #EC9022",
"9  c #EE9123",
"0  c #EE9223",
"q  c #EF9224",
"w  c #EF9324",
"e  c #F09323",
"r  c #F39421",
"t  c #F29423",
"y  c #F49421",
"u  c #F69523",
"i  c #F59623",
"p  c #F09424",
"a  c #F09425",
"s  c #F39624",
"d  c #F59524",
"f  c #F49525",
"g  c #F59624",
"h  c #F49625",
"j  c #F59625",
"k  c #F79624",
"l  c #F79724",
"z  c #F69625",
"x  c #F69725",
"c  c #F79725",
"v  c #F59626",
"b  c #F69726",
"n  c #F89722",
"m  c #F89723",
"M  c #F89624",
"N  c #F89724",
"B  c #F89823",
"V  c #F89824",
"C  c #F89825",
"Z  c #F99925",
"A  c #F99826",
"S  c #F89926",
"D  c #F99926",
"F  c #F99927",
"G  c #F99A26",
"H  c #F99A27",
"J  c #F49729",
"K  c #F0972F",
"L  c #F79828",
"P  c #F6992B",
"I  c #F79A2A",
"U  c #F79B2C",
"Y  c #F79D2E",
"T  c #F99A28",
"R  c #F99A29",
"E  c #FA9B29",
"W  c #F99A2A",
"Q  c #F89B2B",
"!  c #F99B2C",
"~  c #FA9B2C",
"^  c #F89B2E",
"/  c #F89C2C",
"(  c #F99C2C",
")  c #F99C2D",
"_  c #F99D2E",
"`  c #E39435",
"'  c #E59739",
"]  c #E3993F",
"[  c #F69C30",
"{  c #F79D30",
"}  c #F79D31",
"|  c #F79F35",
" . c #FA9F31",
".. c #F99E32",
"X. c #F89F33",
"o. c #F89F36",
"O. c #F59F39",
"+. c #F8A035",
"@. c #F9A035",
"#. c #F9A135",
"$. c #F8A137",
"%. c #F9A137",
"&. c #F7A139",
"*. c #F3A03F",
"=. c #F7A33E",
"-. c #F9A33C",
";. c #F8A43F",
":. c #EFA044",
">. c #EDA347",
",. c #ECA34B",
"<. c #F8A440",
"1. c #F9A440",
"2. c #F9A542",
"3. c #F9A846",
"4. c #F0A44B",
"5. c #F5A649",
"6. c #E5A456",
"7. c #E5A457",
"8. c #F1A750",
"9. c #F4A951",
"0. c #F7AB52",
"q. c #F2AC57",
"w. c #F9B35F",
"e. c #E5A960",
"r. c #E8AB63",
"t. c #EBAC61",
"y. c #E4AE6E",
"u. c #EBB069",
"i. c #F2B063",
"p. c #F6B76C",
"a. c #EBB371",
"s. c #EBBE89",
"d. c #E0BC93",
"f. c #E4C198",
"g. c #EAC79B",
"h. c #E6C7A0",
"j. c #E8C8A2",
"k. c #EBCAA2",
"l. c #F1CDA3",
"z. c #E7CEB1",
"x. c #E5D0B7",
"c. c #ECD2B2",
"v. c #EAD1B5",
"b. c #E8D3BA",
"n. c #E7D5C2",
"m. c #E5D6C4",
"M. c #E7D7C5",
"N. c #E7D8C8",
"B. c #EADBCB",
"V. c #E9DDCD",
"C. c #EDDFCE",
"Z. c #E5DBD0",
"A. c #E4DBD1",
"S. c #E0DBD5",
"D. c #E4DFD7",
"F. c #E3DFDA",
"G. c #EEE1D2",
"H. c #EAE4DD",
"J. c #EBE6DE",
"K. c #E5E2E0",
"L. c #E4E3E2",
"P. c #E7E5E3",
"I. c #EAE8E5",
"U. c #EBEBEA",
"Y. c #EDEEF0",
/* pixels */
"              O o               ",
"          + 7 q e 0 @           ",
"      . 6 w j T Q E s q $       ",
"    X 5 g S / -.t.5.{ n p %     ",
"    8 i ~ 1.i.s.x.j.u.l N h     ",
"  = a R 1.h.L.D.V.J.z.,.m z 4   ",
"  9 U @.0.F.C.q.p.U.A.e.x M b   ",
"& t F #.3.v.I.g.l.P.r.K L N I ; ",
"* f V ) 9.M.B.k.H.K.8.;...A Y > ",
"  h D C 4.S.c.w.G.b.*.2.%. .&.  ",
"  3 c B v a.Z.C.Y.m.:._ ! +.'   ",
"    u G k [ f.N.n.d.7.z ( &.    ",
"    - J G P >.y.6.# r H O.<     ",
"      : } ^ W d y Z o.<.1       ",
"          ` | X.$.=.]           ",
"              , 2               "
};
