/* XPM */
static char *gleecbtc64[] = {
/* columns rows colors chars-per-pixel */
"64 64 152 2 ",
"   c None",
".  c #966C1B",
"X  c #986B1B",
"o  c #98721B",
"O  c #B37C1F",
"+  c #A17627",
"@  c #AE842B",
"#  c #B78420",
"$  c #B48821",
"%  c #B88921",
"&  c #AA8431",
"*  c #FB8603",
"=  c #FD8B05",
"-  c #FC8E0C",
";  c #FF910E",
":  c #FC8F10",
">  c #FC9213",
",  c #F7921B",
"<  c #FB951B",
"1  c #FE991C",
"2  c #C28D23",
"3  c #CE8F2A",
"4  c #D68F23",
"5  c #C49424",
"6  c #CE9023",
"7  c #CA9824",
"8  c #D79024",
"9  c #D39E26",
"0  c #D6982A",
"q  c #D99D2B",
"w  c #DF9E33",
"e  c #E19325",
"r  c #E99A26",
"t  c #E49D2E",
"y  c #E89B2C",
"u  c #F79625",
"i  c #F99624",
"p  c #F79825",
"a  c #F89825",
"s  c #F79728",
"d  c #F89728",
"f  c #F69B2C",
"g  c #F89B2B",
"h  c #EF9C35",
"j  c #F49D34",
"k  c #F99E32",
"l  c #F39F3A",
"z  c #DBA43A",
"x  c #EFA428",
"c  c #EFA829",
"v  c #FEA326",
"b  c #FDAA27",
"n  c #F3A62A",
"m  c #FDA429",
"M  c #F0A82A",
"N  c #FCAB2A",
"B  c #F5B22B",
"V  c #FDB42C",
"C  c #FFBB2D",
"Z  c #E6A436",
"A  c #E3AA31",
"S  c #EFA830",
"D  c #EEA13F",
"F  c #E0A93A",
"G  c #F7A037",
"H  c #FAA135",
"J  c #F7AF31",
"K  c #FCA931",
"L  c #F4A13C",
"P  c #F9A33B",
"I  c #E3B13F",
"U  c #FEB431",
"Y  c #FFBE3C",
"T  c #FFC035",
"R  c #F3A444",
"E  c #FAA642",
"W  c #FAA846",
"Q  c #F1A74D",
"!  c #FAAA4A",
"~  c #EBA654",
"^  c #E7AA5F",
"/  c #EDAC5B",
"(  c #F4AB53",
")  c #FCAE51",
"_  c #FBB057",
"`  c #FBB25C",
"'  c #E5B16F",
"]  c #EBB36C",
"[  c #F2B164",
"{  c #F0B56C",
"}  c #E4B477",
"|  c #ECB672",
" . c #EEB874",
".. c #E5B97E",
"X. c #ECBA7B",
"o. c #E5BA82",
"O. c #EBBE84",
"+. c #EBBE89",
"@. c #EAC08D",
"#. c #E7C394",
"$. c #EBC494",
"%. c #EBC997",
"&. c #E7C499",
"*. c #E9C699",
"=. c #E5CA9E",
"-. c #E9C99D",
";. c #DDC9AC",
":. c #DECBB1",
">. c #E3C7A2",
",. c #E6CBA4",
"<. c #E9CBA2",
"1. c #E8CEAB",
"2. c #E5D1A7",
"3. c #E4D2AE",
"4. c #ECD1AB",
"5. c #E7D5B4",
"6. c #E8D4B5",
"7. c #E5D3B9",
"8. c #EAD7BC",
"9. c #EBD8BE",
"0. c #F0D6B4",
"q. c #D9DED0",
"w. c #E6DBC4",
"e. c #EADAC3",
"r. c #E6DCCA",
"t. c #E9DFCD",
"y. c #EEE1CA",
"u. c #E6E0D3",
"i. c #EAE1D1",
"p. c #E3E4DA",
"a. c #EAE5DD",
"s. c #E2E9DB",
"d. c #F3EDDF",
"f. c #DFFCFC",
"g. c #E8E6E2",
"h. c #E5ECE3",
"j. c #EBEDE5",
"k. c #E7ECEF",
"l. c #E8EAE9",
"z. c #E9F0ED",
"x. c #F4F0E5",
"c. c #F2F3ED",
"v. c #E7EDF0",
"b. c #E8EEF2",
"n. c #EBF2F6",
"m. c #EDF8F7",
"M. c #EBF4F9",
"N. c #E5FCFC",
"B. c #ECFAFC",
"V. c #F3F4F2",
"C. c #F4FEFE",
"Z. c #FEFFFF",
/* pixels */
"                                                                                                                                ",
"                                                                                                                                ",
"                                                                                                                                ",
"                                                                                                                                ",
"                                                  O e m V V V V V V V V m e O                                                   ",
"                                            6 N C V m a i i i i i i i a a m V C N 6                                             ",
"                                      . x C b a u u a u i a a a i a a a p a u u a N C c o                                       ",
"                                    B V v i u u a a a a a a a a a a a a a a a g a i i b B N                                     ",
"                                9 V v p u a a a a p a a a a a a a a a a i g g g a i p a a v C 9                                 ",
"                              C V a p p a a p a a a a a i p a a a i a a g g g g g a a a a u a V C                               ",
"                          5 V g p u a a a a a a a a p a p a a a a a g g g g g g g a p a a p i i a V 7                           ",
"                        $ B a u i p a a a p a a p i a a a a p a g g g g g y k g g g a a a a a a a a B %                         ",
"                      # B a a a a a a a a a p a a p a a p p p g g g g g H k k g g g a a a a a a a p a B %                       ",
"                    2 B a a a a a a p a a a a a a a a a g g g k u > , g H H k g g g a a a a a a a a a a B 2                     ",
"                    V a a a a a p a a a p a p a a p a g g g g p G ' G s k G g u k g g a a i a a a a a a a V                     ",
"                  C m a a a a a i a p a a a i a a g g g g g k - | f.M.:.g H H g = , g g a a a a a a a a i g C                   ",
"                x N i i a a a a p i a a a p a g g g g g g k H - <.Z.Z.e.1 , >.u.-.~ , g a a p p a a a a a u N n                 ",
"                C a i a a a a a p a a p a g g g g k g g k k k u u.Z.C.X.> k p.Z.N...= g g a p p a a a a a p a V                 ",
"              V v a a a a a a a a a g g g g g g - ; > , , > = k M.Z.B./ > ( B.Z.B.R > g g p p p a a a a a a p g C               ",
"            . V i a i a a a a a a g g g g g > , / -.5.9.8.<.X.-.C.Z.t., = X.C.Z.p.a g g g g p p a a a a a a a i V .             ",
"            N v a a a a a a a g g g g g k : R 9.B.C.C.Z.C.C.C.C.Z.Z.d. .G 4.Z.Z.%.= H k g g p p a a a a a a a p g N             ",
"            C i i a a a a g g g g g g k > G h.C.Z.Z.Z.Z.Z.Z.Z.Z.Z.Z.Z.C.M.V.Z.C.X.* - ; , g g p a a a a a a p a i C             ",
"          8 N u a a a a g g g g g k k g > w.B.Z.Z.Z.Z.Z.Z.Z.Z.Z.Z.Z.Z.Z.Z.Z.Z.Z.V.e.&./ H : , u a a a a a a a a i N r           ",
"          N a i a a g g g g g k k k H > / B.Z.Z.Z.Z.Z.C.l.e.8.e.a.M.B.C.Z.Z.Z.Z.Z.Z.C.B.b.r.^ : a a a a a p a a a a N           ",
"          C i g g g g g g g k k G G G 1 <.C.Z.Z.Z.Z.C.-.G g g k R / X.-.c.Z.Z.Z.Z.Z.Z.Z.Z.N.~ - g a a a a a a a a i V           ",
"        O V a g g g g k k k H H G G H a t.Z.Z.Z.Z.Z.w., H ! _ ) ! W m k a.Z.Z.Z.Z.Z.C.C.C.1.- a g p a a a a p a a i N 4         ",
"        e N a a g g g k H H G E G G G G g.Z.Z.Z.Z.C.+.i _ _ _ _ _ _ W { B.Z.Z.Z.Z.t.{ <.q./ : k g g a a a a a a a a m r         ",
"        m a i a g g g g H G G G E W G H u.Z.Z.Z.Z.C.*.g _ _ _ _ [ _ G %.C.Z.Z.Z.B./ = , g g k g g g p i a p a i a p a m         ",
"        V i a a i g g g k k H G G W W a -.C.Z.Z.Z.Z.h./ m _ _ [ _ _ G 8.C.Z.Z.Z.b.l k G H k k g g g g p a a a a a a i m         ",
"        V i a a a a g g g k H G E G W H R p.C.Z.Z.Z.Z.h. .E G ) [ _ / l.Z.Z.Z.Z.w.a E G G G k k g g g p a a a a a i i N         ",
"        V i a a p a g g g k k G G W W ! H R 5.C.Z.Z.Z.Z.B.e.+.[ ! g [ B.Z.Z.Z.C.*.a W W G E H k k g g g a a a a a a i C         ",
"        V i a a a a a g g g k k G G G W H > / x.Z.Z.Z.Z.Z.Z.B.b.t.%.0.C.Z.Z.Z.B.] g W ! G G H H k g g g a a a a a i i V         ",
"        V p p a a a i a g g g k G G G m k >.m.Z.Z.Z.Z.Z.Z.Z.Z.Z.Z.Z.C.Z.Z.Z.Z.l.Q G W W E G P G H g g g g i a a a a i C         ",
"        V i a a a a p a g g g k H G G , >.B.Z.Z.Z.Z.C.M.g.g.b.C.C.Z.Z.Z.Z.Z.Z.r.H W ! W W G P G H H g g g a a a a a i V         ",
"        V i a a p a p a g g g k H H a R N.Z.Z.Z.Z.C.7./ Q ( [ X.&.y.Z.Z.Z.Z.C.-.g _ ! W W G P P H k H g g g a a a a i N         ",
"        V i a a a a p p p g g g k H > +.C.Z.Z.Z.Z.t.k H ! _ _ ! 1 +.m.Z.Z.Z.B. .H _ ! W W W W G G H k g g g a a a a i N         ",
"        v i u a a p a a p a g g g k > <.C.Z.Z.Z.C.*.i _ _ _ [ _ G 8.C.Z.Z.Z.b.Q W ! ! W W ! W G G G k k g g g a a a a m         ",
"        e m a a a a a a i a g g g k > <.C.Z.Z.Z.C.-.i _ _ [ _ _ ( l.Z.Z.Z.Z.w.g W W W W E W G E G G H k g g g g a i m y         ",
"        O V u a a p a i a p g g g k ; ] B.Z.Z.Z.Z.j./ a W _ _ G { B.Z.Z.Z.C.*.i W W W W G G G G G H H H k g g g a i N 3         ",
"          C i a a a a p a a a g g g a u u.Z.Z.Z.Z.Z.z.X.E G E 1 *.C.Z.Z.Z.B.] i W W G G W G H H H H H g g g g g g i V           ",
"          V a i a a a a a a p a g g k > l s.C.Z.Z.Z.Z.B.h.1.X.R 8.Z.Z.Z.Z.h.l k G W G G H H k k k g g g g g g g i i N           ",
"          8 N i a a a a a a a a g g g k > h 2.B.Z.Z.Z.Z.Z.C.B.n.Z.Z.Z.Z.Z.t.> k G G G G k k k k g g g g g p a a i N y           ",
"            C i a a a a a a p a i g g g k 1 > ^ 7.c.Z.Z.Z.Z.Z.Z.Z.Z.Z.Z.Z.V.] , > a G H k k g g g g g g a a a a i C             ",
"            N g i a a a i a a a a g g g k H H , * X.C.Z.Z.B.C.Z.Z.Z.Z.Z.Z.Z.C.u.=./ a H g g g g g g p a a a a i a U             ",
"            X V a a a a a a a a a p g g g k H G > *.C.Z.8.~ +.d.Z.Z.Z.C.Z.Z.Z.Z.N.| = k g g g g p p p p a a a a V +             ",
"              V v a a a a p i a a i g g g k k k u u.Z.C.o.= - e.Z.Z.<.+.u.M.C.Z.B.l > g g g a a u p p p a a p a n               ",
"                V a u a a p a p p a p g g g k 1 R M.Z.B./ ; Q M.Z.B.h * u D ] 2.;.i a g a p a a p a p a a a a C                 ",
"                M N u a a a a a a a p g g g k > ..N.Z.l.k ;  .C.Z.a.u g g > = = , a g a a a a a a a a a a a b U                 ",
"                  V v p p p p p a a a a g g g i ~ >.p.:.i > 7.Z.Z.1.= g g g g a a a a a a a a a a a a p a a U                   ",
"                    U a p p p p a a p a a g g k i : g G v g ;.n.N.} = g g g g a a p a a a a a a a a a u a C                     ",
"                    q N a i p a p a a a a g g g k k g k H g s k | l 1 g g a p a a p i p a a a a a a i a b z                     ",
"                      0 V a a p a a i a p g g g g k k k k k g > - , g p a p a a a a a a a a i a a a a b z                       ",
"                        q N a u a a a a a a g g y k k g g g g g g p p p a p a a a a p a a a a a p a N z                         ",
"                          A V a i a a a a a g g g g g g g g g a p p a a a a a a a a a a a a a i a C I                           ",
"                              N v i a i a a a g g g g g g g u p a a a a a a a p a a a a a a a a b                               ",
"                                U N a i p i a g g g s u u u u p a p a a a p i a a a a u a 1 v Y                                 ",
"                                    U N g i i a g g a a a a a a a a a a a a a a a a i g b T                                     ",
"                                      @ M b v a i i a a a a a a a p a i a a a i a v b n &                                       ",
"                                            t M N v v a i i a i i i i i i a v N n Z                                             ",
"                                                  t K g N N V V V V b N g K Z                                                   ",
"                                                                                                                                ",
"                                                                                                                                ",
"                                                                                                                                ",
"                                                                                                                                "
};
